PathFileType	4	(X/Y/Z)	Run_300 02
DataRate	CameraRate	NumFrames	NumMarkers	Units	OrigDataRate	OrigDataStartFrame	OrigNumFrames
100	100	4	42	mm	100	143	128
Frame#	Time	LASI			RASI			LPSI			RTH1			RTH2			RTH3			LTH1			LTH2			LTH3			RTB1			RTB2			RTB3			LTB1			LTB2			LTB3			RCAL			RTOE			RMT5			LCAL			LTOE			LMT5			LACR			RACR			CLAV			C7			RUA1			RUA2			RUA3			RLEL			RMEL			LUA1			LUA2			LUA3			LLEL			RFAsuperior			RFAradius			RFAulna			LFAsuperior			LFAradius			LFAulna			LMEL			RPSI			
		X1	Y1	Z1	X2	Y2	Z2	X3	Y3	Z3	X4	Y4	Z4	X5	Y5	Z5	X6	Y6	Z6	X7	Y7	Z7	X8	Y8	Z8	X9	Y9	Z9	X10	Y10	Z10	X11	Y11	Z11	X12	Y12	Z12	X13	Y13	Z13	X14	Y14	Z14	X15	Y15	Z15	X16	Y16	Z16	X17	Y17	Z17	X18	Y18	Z18	X19	Y19	Z19	X20	Y20	Z20	X21	Y21	Z21	X22	Y22	Z22	X23	Y23	Z23	X24	Y24	Z24	X25	Y25	Z25	X26	Y26	Z26	X27	Y27	Z27	X28	Y28	Z28	X29	Y29	Z29	X30	Y30	Z30	X31	Y31	Z31	X32	Y32	Z32	X33	Y33	Z33	X34	Y34	Z34	X35	Y35	Z35	X36	Y36	Z36	X37	Y37	Z37	X38	Y38	Z38	X39	Y39	Z39	X40	Y40	Z40	X41	Y41	Z41	X42	Y42	Z42	

141	2.01	1236.051216	1020.622264	-467.380013	1231.96677	1022.898134	-214.799151	1074.198784	1074.367364	-390.119949	1230.58002	878.132376	-159.968519	1312.269134	812.045307	-182.145434	1317.304716	668.991088	-203.295697	1124.983114	858.446737	-516.112967	1133.138688	718.739113	-482.87861	1011.707049	640.438682	-473.259016	1365.649461	419.358547	-273.260991	1288.323759	334.619012	-230.671423	1290.462113	258.707122	-292.192907	899.359463	376.575287	-387.009373	833.980079	345.94922	-426.224549	806.296602	273.713381	-366.173842	1147.482284	177.889511	-296.172871	1381.495933	143.054427	-297.96865	1359.101695	120.528613	-223.39034	645.127198	248.809368	-338.869789	799.9241060000001	73.668346	-313.842592	764.817688	69.779718	-399.558106	1267.648879	1556.541606	-475.019832	1200.190917	1518.806312	-145.811561	1278.690887	1472.730718	-272.986599	1183.026742	1573.331315	-320.734336	1093.803022	1425.429324	-82.522443	1032.174361	1438.336776	-113.958497	1015.110865	1373.023369	-80.892353	954.676709	1313.159989	-73.15754699999999	941.867678	1317.828971	-167.035716	1232.142414	1447.256461	-566.313907	1150.021041	1398.654479	-573.972753	1193.166822	1330.663374	-602.626901	1179.744258	1261.45657	-621.362411	1036.158587	1281.781821	-73.464519	1191.15576	1227.175546	-129.211292	1154.981696	1168.622433	-111.934373	1259.360022	1265.921459	-581.246482	1365.94199	1325.77312	-454.055095	1392.186421	1259.320061	-465.373186	1125.839821	1245.578418	-545.019905	1066.272223	1076.509824	-296.084616	
142	2.02	1238.315766	1023.201116	-468.608046	1233.648098	1026.196277	-216.190854	1076.889306	1077.387901	-392.191391	1231.786901	882.382294	-160.516949	1311.328961	814.465595	-183.555842	1313.389444	670.731391	-204.016318	1126.480664	861.0959769999999	-517.204031	1130.852783	721.779543	-481.586196	1007.512114	646.478673	-473.015504	1376.510688	419.39384	-273.483772	1308.0658	326.613534	-232.24861	1317.438559	252.347591	-295.061915	889.137644	385.163019	-387.813788	823.213987	355.970487	-427.443746	794.5736910000001	283.255904	-367.829667	1183.351517	157.359283	-300.263117	1419.684977	146.867454	-302.687333	1399.747633	120.453223	-228.473857	636.731571	265.160199	-340.892034	777.607292	76.111277	-315.149068	741.10018	75.008257	-400.314526	1269.560131	1561.338384	-472.522063	1202.49496	1521.431078	-145.088106	1280.22913	1475.558248	-273.019829	1183.926106	1576.261946	-319.429531	1096.169713	1429.152197	-81.379987	1034.768668	1442.860313	-112.269941	1017.202119	1377.513061	-79.24443100000001	955.875235	1318.057399	-71.642146	942.802396	1323.218306	-165.689472	1235.470344	1453.891427	-565.989835	1153.605553	1405.539353	-574.4668789999999	1196.994149	1337.786234	-603.68272	1183.399991	1268.159149	-622.901401	1037.44815	1287.489048	-72.368095	1192.695438	1233.538903	-127.910274	1156.906513	1174.934089	-110.455018	1262.078928	1272.558837	-580.7603339999999	1365.650221	1332.217847	-450.698296	1392.427135	1265.753793	-461.979132	1127.594997	1252.247336	-547.582843	1068.448231	1080.282973	-298.554114	
143	2.03	1240.317044	1024.708355	-469.592407	1235.054553	1028.341523	-217.324532	1079.214834	1079.605532	-394.319359	1232.290752	883.950095	-161.008415	1309.566161	814.06755	-184.954978	1308.196124	669.887479	-203.90685	1128.30014	863.450563	-518.567991	1129.742549	724.411217	-480.642887	1005.09451	651.593347	-472.996761	1385.308855	418.307374	-273.726181	1326.403349	318.68825	-233.566831	1343.08695	246.517917	-297.401715	881.047584	392.35036	-388.615501	814.575547	364.845875	-428.626783	784.3234660000001	291.998348	-369.543546	1218.641624	139.140213	-304.010594	1454.769812	151.903678	-306.800735	1437.728477	122.265391	-232.998508	629.608247	280.939094	-343.391248	756.268563	78.678533	-316.608817	718.550345	80.827592	-401.063841	1271.241296	1564.723023	-470.045117	1204.995978	1523.185559	-144.317742	1281.868362	1477.453315	-272.832544	1184.982139	1578.358932	-318.195774	1099.138616	1431.437147	-79.894442	1037.756662	1445.772777	-109.939775	1020.064426	1380.231027	-77.155688	958.176846	1321.03985	-69.41695199999999	944.464052	1326.495774	-163.488541	1238.472598	1459.087602	-566.236733	1156.57903	1411.39794	-574.8598459999999	1199.893987	1343.761667	-604.731621	1185.967792	1273.784304	-624.5084880000001	1039.949575	1291.403227	-70.687208	1195.310746	1238.399975	-126.653304	1160.041733	1179.683877	-108.432989	1263.842676	1277.637038	-580.614631	1365.193464	1336.381213	-448.044312	1391.826495	1269.689971	-459.260262	1128.391672	1257.957821	-550.047535	1070.136507	1082.756874	-300.990257	
144	2.04	1242.083219	1025.109289	-470.24802	1236.238001	1029.396517	-218.130146	1081.157592	1080.940946	-396.491137	1231.948996	883.02406	-161.298968	1307.541221	811.062204	-185.746012	1302.251749	666.731984	-203.463934	1130.432707	865.225767	-519.986027	1130.068209	726.2733899999999	-479.927618	1004.748993	655.068904	-473.290934	1392.101904	416.261263	-273.818965	1342.72292	311.26193	-234.612145	1366.66748	241.501214	-299.135485	874.82185	397.62639	-389.259102	807.857456	372.122994	-429.716219	775.029951	299.813796	-371.178049	1252.142772	123.800388	-307.319814	1486.034384	157.930146	-310.28879	1472.091664	125.559077	-236.989908	622.71792	295.982279	-346.67798	735.333651	82.694849	-317.876947	697.375279	87.578093	-401.715973	1272.712332	1566.940398	-468.031532	1207.653131	1523.978561	-143.516717	1283.607579	1478.542963	-272.242531	1186.217181	1579.558898	-317.036454	1102.607321	1432.316934	-78.10924799999999	1041.031548	1446.978658	-107.122839	1023.572083	1381.197947	-74.67811	961.4664320000001	1322.137894	-66.54355200000001	946.867352	1327.58853	-160.513667	1240.937702	1462.790774	-566.753047	1158.779334	1416.056478	-575.087768	1201.783781	1348.452466	-605.809698	1187.395493	1278.2017	-626.101039	1043.511181	1293.504305	-68.414053	1198.904932	1241.788431	-125.348205	1164.354448	1182.856551	-106.022325	1264.642494	1281.019866	-580.843077	1364.691436	1338.100283	-446.214559	1390.443825	1271.030063	-457.267559	1128.467938	1262.563646	-552.4449069999999	1071.251015	1083.827177	-303.101189	
